<svg version="1.0" xmlns="http://www.w3.org/2000/svg" width="933.333" height="933.333" viewBox="0 0 700 700"><path d="M387.5.6c-53.9 3.3-100.8 16.8-131.4 37.7-9.6 6.5-22.6 19.5-26.9 26.8-6.9 11.8-9.7 26.1-7.2 37 2.5 11.2 7.7 19.6 18.5 30.5 11.2 11.2 19.1 16.8 35.1 24.8 35.3 17.5 80.1 26.6 130.9 26.6 30.1 0 55-2.8 80.7-9.1 6.6-1.6 12.3-2.9 12.9-2.9.5 0 .9 44.5.9 116.4v116.4l-6.7.7c-26.2 2.4-42.9 5.1-60.3 9.5-22 5.5-44.7 14.5-59.4 23.4-3.2 2-6 3.6-6.3 3.6-.2 0-.3-14.1-.3-31.3.1-28.8 0-31.7-1.9-37.7-9.3-29.5-45.6-54.6-98.5-68-19.8-5-30.4-6.8-51.6-8.5-69.1-5.8-136.1 7.4-178.7 35-11.9 7.7-25.7 21.8-30.6 31.1-12.3 23.6-7.3 46.3 14.9 67.3 9.4 9 19.4 15.6 34.9 23.1 24.9 12.1 50.9 19 90.5 24.2 15.1 2 63.4 1.6 80.5-.6 14.6-1.8 32.8-5.3 45.3-8.5l7.2-1.9V700h52l.1-96.3v-96.2l2.3 6.2c13.2 35.4 65.7 63.7 135.1 72.8 45.5 6 101.1 2.3 139.8-9.1 1.6-.5 1.7 2.9 1.7 61V700h89V596.2c0-89.5-.2-104.6-1.5-109.7-5.6-21.9-24.9-41-56.7-56-14.7-6.9-24.9-10.4-48.6-16.5l-4.2-1.1V248.7c.1-149.3-.1-164.7-1.6-169.7-3.2-10.8-7.5-17.5-18.2-28.3-23.8-24.2-70.4-42.3-123.9-48.1-14.1-1.6-46.5-2.7-57.8-2z"/></svg>