<?xml version="1.0" encoding="utf-8"?><svg xmlns="http://www.w3.org/2000/svg" xmlns:xlink="http://www.w3.org/1999/xlink"><symbol viewBox="0 0 13 7" id="arrow" xmlns="http://www.w3.org/2000/svg"><path fill-rule="evenodd" clip-rule="evenodd" d="M6.338 1.583L.676 6.773 0 6.036 6.338.226l6.338 5.81-.676.737-5.662-5.19z"/></symbol><symbol viewBox="0 0 20 20" id="email" xmlns="http://www.w3.org/2000/svg"><path d="M16.667 3.333H3.333c-.916 0-1.658.75-1.658 1.667l-.008 10c0 .917.75 1.667 1.666 1.667h13.334c.916 0 1.666-.75 1.666-1.667V5c0-.917-.75-1.667-1.666-1.667zm0 11.667H3.333V6.667L10 10.833l6.667-4.166V15zM10 9.167L3.333 5h13.334L10 9.167z"/></symbol><symbol viewBox="0 0 20 20" id="location" xmlns="http://www.w3.org/2000/svg"><path d="M10 1.667A5.83 5.83 0 004.167 7.5C4.167 11.875 10 18.333 10 18.333s5.833-6.458 5.833-10.833A5.83 5.83 0 0010 1.667zM5.833 7.5C5.833 5.2 7.7 3.333 10 3.333S14.167 5.2 14.167 7.5c0 2.4-2.4 5.992-4.167 8.233C8.267 13.508 5.833 9.875 5.833 7.5z"/><path d="M10 9.583a2.083 2.083 0 100-4.166 2.083 2.083 0 000 4.166z"/></symbol><symbol viewBox="0 0 20 20" id="nav" xmlns="http://www.w3.org/2000/svg"><path d="M14.392 5.608l-3.534 8.442-1.366-3.542-.684-.266L5.95 9.133l8.442-3.525zM17.5 2.5l-15 6.275v.817L8.2 11.8l2.2 5.7h.817l6.283-15z"/></symbol><symbol viewBox="0 0 20 20" id="phone" xmlns="http://www.w3.org/2000/svg"><path d="M5.45 4.167c.05.741.175 1.466.375 2.158l-1 1c-.342-1-.558-2.058-.633-3.158H5.45zm8.217 10.016c.708.2 1.433.325 2.166.375V15.8a12.856 12.856 0 01-3.166-.625l1-.992zM6.25 2.5H3.333a.836.836 0 00-.833.833C2.5 11.158 8.842 17.5 16.667 17.5a.836.836 0 00.833-.833v-2.909a.836.836 0 00-.833-.833 9.506 9.506 0 01-2.975-.475.7.7 0 00-.259-.042.854.854 0 00-.591.242l-1.834 1.833a12.624 12.624 0 01-5.491-5.491L7.35 7.158a.836.836 0 00.208-.85 9.467 9.467 0 01-.475-2.975.836.836 0 00-.833-.833z"/></symbol></svg>