<svg width="24" height="28" fill="none" xmlns="http://www.w3.org/2000/svg"><path d="M14.615 7.608H7.448V5.95h6.44a6.16 6.16 0 01.736-4.975H1.655A1.654 1.654 0 000 2.633v23.215a1.66 1.66 0 001.655 1.659h16.552a1.654 1.654 0 001.655-1.659V10.51a6.191 6.191 0 01-5.247-2.902zM5.793 22.532H4.138v-1.658h1.655v1.658zm0-4.975H4.138V15.9h1.655v1.658zm0-4.974H4.138v-1.659h1.655v1.659zm0-4.975H4.138V5.95h1.655v1.658zm9.931 14.924H7.448v-1.658h8.276v1.658zm0-4.975H7.448V15.9h8.276v1.658zm0-4.974H7.448v-1.659h8.276v1.659z" fill="#F3CF71"/><path d="M19.862 8.437A4.142 4.142 0 0024 4.29 4.142 4.142 0 0019.862.146a4.142 4.142 0 00-4.138 4.145 4.142 4.142 0 004.138 4.146z" fill="#F3CF71"/></svg>