<svg width="332" height="109" fill="none" xmlns="http://www.w3.org/2000/svg"><path opacity=".9" fill-rule="evenodd" clip-rule="evenodd" d="M331.722 35.43C324.049-.476 250.531-6.535 158.332 5.885 146.884 7.243-12.206 30.117.75 81.915c2.41-53.01 146.998-70.698 157.582-72.092 85.57-9.39 161.197-6.664 168.73 25.444 4.351 30.664-87.077 64.52-197.354 73.607 67.492 2.423 209.406-30.291 202.014-73.444z" fill="#fff"/><path opacity=".9" fill-rule="evenodd" clip-rule="evenodd" d="M299.702 61.796c14.267-8.989 21.932-18.275 20.655-26.801-5.861-39.106-162.025-24.87-195.771-13.965 27.418-2.423 172.044-17.266 180.977 26.328 0 8.507-1.621 9.67-5.861 14.438zm-118.17 34.961C66.735 102.21 36.906 83.732 32.086 79.794c-4.821-3.937-11.751-11.813-3.917-23.626-17.476 9.39-18.079 17.871-14.162 27.867 3.917 9.996 42.484 32.714 167.525 12.722z" fill="url(#paint0_linear_0_196)"/><path d="M40.691 57.606v7.047h-6.496V45.258h8.912c2.221 0 3.908.237 5.06.71 1.161.474 2.079 1.199 2.751 2.175a5.59 5.59 0 011.024 3.282c0 1.847-.693 3.339-2.079 4.476-1.386 1.136-3.235 1.705-5.549 1.705h-3.623zm-.091-4.163h2.14c1.885 0 2.828-.645 2.828-1.933 0-1.212-.871-1.819-2.614-1.819H40.6v3.752z" fill="url(#paint1_linear_0_196)"/><path d="M70.167 60.021v4.632h-15.7V45.258h15.7v4.476H60.75v2.813h7.613v4.306H60.75v3.168h9.417z" fill="url(#paint2_linear_0_196)"/><path d="M72.845 64.653V45.258h13.284v4.575H79.25v14.82h-6.405z" fill="url(#paint3_linear_0_196)"/><path d="M94.08 62.607v2.046h-6.22V45.258h6.22v7.787c0 1.032-.06 2.264-.183 3.694a46.279 46.279 0 012.278-4.135l3.302-5.271v-2.075h6.222v19.395h-6.222v-7.715c0-1.108.056-2.335.168-3.68a37.95 37.95 0 01-2.277 4.12l-3.287 5.23z" fill="url(#paint4_linear_0_196)"/><path d="M118.496 64.952c-2.935 0-5.329-.905-7.184-2.714-1.845-1.81-2.767-4.23-2.767-7.26 0-2.9.881-5.291 2.645-7.176 1.773-1.895 4.229-2.842 7.368-2.842 2.904 0 5.268.89 7.093 2.671 1.834 1.781 2.751 4.159 2.751 7.133 0 3.079-.922 5.546-2.767 7.403-1.844 1.856-4.224 2.785-7.139 2.785zm-.03-4.405c1.08 0 1.855-.436 2.323-1.307.479-.881.719-2.487.719-4.817 0-3.372-.973-5.058-2.92-5.058-2.099 0-3.149 1.922-3.149 5.768 0 3.61 1.009 5.414 3.027 5.414z" fill="url(#paint5_linear_0_196)"/><path d="M148.95 45.258v19.395h-6.405v-7.545h-4.892v7.545h-6.405V45.258h6.405v7.133h4.892v-7.133h6.405z" fill="url(#paint6_linear_0_196)"/><path d="M175.399 45.258v19.395h-5.947V50.785l-3.867 13.868h-4.066l-4.005-13.868v13.868h-4.8V45.258h8.361l3.027 10.302 2.889-10.302h8.408z" fill="url(#paint7_linear_0_196)"/><path d="M194.862 60.021v4.632h-15.7V45.258h15.7v4.476h-9.417v2.813h7.613v4.306h-7.613v3.168h9.417z" fill="url(#paint8_linear_0_196)"/><path d="M206.115 49.904v14.75h-6.068v-14.75h-4.326v-4.646h14.721v4.646h-4.327z" fill="url(#paint9_linear_0_196)"/><path d="M212.401 64.653V45.258h17.259v19.395h-6.222V49.421h-4.815v15.232h-6.222z" fill="url(#paint10_linear_0_196)"/><path d="M239.905 57.606v7.047h-6.497V45.258h8.912c2.221 0 3.908.237 5.06.71 1.161.474 2.079 1.199 2.751 2.175a5.59 5.59 0 011.024 3.282c0 1.847-.693 3.339-2.078 4.476-1.386 1.136-3.236 1.705-5.55 1.705h-3.622zm-.092-4.163h2.14c1.885 0 2.828-.645 2.828-1.933 0-1.212-.871-1.819-2.614-1.819h-2.354v3.752z" fill="url(#paint11_linear_0_196)"/><path d="M262.7 64.952c-2.935 0-5.33-.905-7.185-2.714-1.844-1.81-2.767-4.23-2.767-7.26 0-2.9.882-5.291 2.645-7.176 1.773-1.895 4.229-2.842 7.368-2.842 2.904 0 5.269.89 7.093 2.671 1.834 1.781 2.751 4.159 2.751 7.133 0 3.079-.922 5.546-2.766 7.403-1.845 1.856-4.225 2.785-7.139 2.785zm-.031-4.405c1.08 0 1.855-.436 2.324-1.307.479-.881.718-2.487.718-4.817 0-3.372-.973-5.058-2.92-5.058-2.099 0-3.149 1.922-3.149 5.768 0 3.61 1.009 5.414 3.027 5.414z" fill="url(#paint12_linear_0_196)"/><path d="M298.137 45.258v19.395h-5.947V50.785l-3.867 13.868h-4.066l-4.005-13.868v13.868h-4.8V45.258h8.361l3.027 10.302 2.889-10.302h8.408z" fill="url(#paint13_linear_0_196)"/><defs><linearGradient id="paint0_linear_0_196" x1="166.265" y1="9.258" x2="186.107" y2="116.885" gradientUnits="userSpaceOnUse"><stop stop-color="#A80000"/><stop offset="1" stop-color="#600000"/></linearGradient><linearGradient id="paint1_linear_0_196" x1="166.166" y1="44.96" x2="166.166" y2="64.952" gradientUnits="userSpaceOnUse"><stop stop-color="#BDBDBD"/><stop offset=".386" stop-color="#7A7A7A"/><stop offset=".658" stop-color="#FAFAFA"/><stop offset=".8" stop-color="#ADADAD"/><stop offset="1" stop-color="#707070"/></linearGradient><linearGradient id="paint2_linear_0_196" x1="166.166" y1="44.96" x2="166.166" y2="64.952" gradientUnits="userSpaceOnUse"><stop stop-color="#BDBDBD"/><stop offset=".386" stop-color="#7A7A7A"/><stop offset=".658" stop-color="#FAFAFA"/><stop offset=".8" stop-color="#ADADAD"/><stop offset="1" stop-color="#707070"/></linearGradient><linearGradient id="paint3_linear_0_196" x1="166.166" y1="44.96" x2="166.166" y2="64.952" gradientUnits="userSpaceOnUse"><stop stop-color="#BDBDBD"/><stop offset=".386" stop-color="#7A7A7A"/><stop offset=".658" stop-color="#FAFAFA"/><stop offset=".8" stop-color="#ADADAD"/><stop offset="1" stop-color="#707070"/></linearGradient><linearGradient id="paint4_linear_0_196" x1="166.166" y1="44.96" x2="166.166" y2="64.952" gradientUnits="userSpaceOnUse"><stop stop-color="#BDBDBD"/><stop offset=".386" stop-color="#7A7A7A"/><stop offset=".658" stop-color="#FAFAFA"/><stop offset=".8" stop-color="#ADADAD"/><stop offset="1" stop-color="#707070"/></linearGradient><linearGradient id="paint5_linear_0_196" x1="166.166" y1="44.96" x2="166.166" y2="64.952" gradientUnits="userSpaceOnUse"><stop stop-color="#BDBDBD"/><stop offset=".386" stop-color="#7A7A7A"/><stop offset=".658" stop-color="#FAFAFA"/><stop offset=".8" stop-color="#ADADAD"/><stop offset="1" stop-color="#707070"/></linearGradient><linearGradient id="paint6_linear_0_196" x1="166.166" y1="44.96" x2="166.166" y2="64.952" gradientUnits="userSpaceOnUse"><stop stop-color="#BDBDBD"/><stop offset=".386" stop-color="#7A7A7A"/><stop offset=".658" stop-color="#FAFAFA"/><stop offset=".8" stop-color="#ADADAD"/><stop offset="1" stop-color="#707070"/></linearGradient><linearGradient id="paint7_linear_0_196" x1="166.166" y1="44.96" x2="166.166" y2="64.952" gradientUnits="userSpaceOnUse"><stop stop-color="#BDBDBD"/><stop offset=".386" stop-color="#7A7A7A"/><stop offset=".658" stop-color="#FAFAFA"/><stop offset=".8" stop-color="#ADADAD"/><stop offset="1" stop-color="#707070"/></linearGradient><linearGradient id="paint8_linear_0_196" x1="166.166" y1="44.96" x2="166.166" y2="64.952" gradientUnits="userSpaceOnUse"><stop stop-color="#BDBDBD"/><stop offset=".386" stop-color="#7A7A7A"/><stop offset=".658" stop-color="#FAFAFA"/><stop offset=".8" stop-color="#ADADAD"/><stop offset="1" stop-color="#707070"/></linearGradient><linearGradient id="paint9_linear_0_196" x1="166.166" y1="44.96" x2="166.166" y2="64.952" gradientUnits="userSpaceOnUse"><stop stop-color="#BDBDBD"/><stop offset=".386" stop-color="#7A7A7A"/><stop offset=".658" stop-color="#FAFAFA"/><stop offset=".8" stop-color="#ADADAD"/><stop offset="1" stop-color="#707070"/></linearGradient><linearGradient id="paint10_linear_0_196" x1="166.166" y1="44.96" x2="166.166" y2="64.952" gradientUnits="userSpaceOnUse"><stop stop-color="#BDBDBD"/><stop offset=".386" stop-color="#7A7A7A"/><stop offset=".658" stop-color="#FAFAFA"/><stop offset=".8" stop-color="#ADADAD"/><stop offset="1" stop-color="#707070"/></linearGradient><linearGradient id="paint11_linear_0_196" x1="166.166" y1="44.96" x2="166.166" y2="64.952" gradientUnits="userSpaceOnUse"><stop stop-color="#BDBDBD"/><stop offset=".386" stop-color="#7A7A7A"/><stop offset=".658" stop-color="#FAFAFA"/><stop offset=".8" stop-color="#ADADAD"/><stop offset="1" stop-color="#707070"/></linearGradient><linearGradient id="paint12_linear_0_196" x1="166.166" y1="44.96" x2="166.166" y2="64.952" gradientUnits="userSpaceOnUse"><stop stop-color="#BDBDBD"/><stop offset=".386" stop-color="#7A7A7A"/><stop offset=".658" stop-color="#FAFAFA"/><stop offset=".8" stop-color="#ADADAD"/><stop offset="1" stop-color="#707070"/></linearGradient><linearGradient id="paint13_linear_0_196" x1="166.166" y1="44.96" x2="166.166" y2="64.952" gradientUnits="userSpaceOnUse"><stop stop-color="#BDBDBD"/><stop offset=".386" stop-color="#7A7A7A"/><stop offset=".658" stop-color="#FAFAFA"/><stop offset=".8" stop-color="#ADADAD"/><stop offset="1" stop-color="#707070"/></linearGradient></defs></svg>